<?xml version="1.0" encoding="UTF-8"?>
<!DOCTYPE svg PUBLIC "-//W3C//DTD SVG 1.1//EN" "http://www.w3.org/Graphics/SVG/1.1/DTD/svg11.dtd">
<!-- Creator: CorelDRAW 2021 (64 Bit) -->
<svg xmlns="http://www.w3.org/2000/svg" xml:space="preserve" width="127px" height="180px" version="1.1" style="shape-rendering:geometricPrecision; text-rendering:geometricPrecision; image-rendering:optimizeQuality; fill-rule:evenodd; clip-rule:evenodd"
viewBox="0 0 127 179.61"
 xmlns:xlink="http://www.w3.org/1999/xlink"
 xmlns:xodm="http://www.corel.com/coreldraw/odm/2003">
 <defs>
  <style type="text/css">
   <![CDATA[
    .fil0 {fill:#FCA412}
    .fil1 {fill:#14489C}
   ]]>
  </style>
 </defs>
 <g id="Camada_x0020_1">
  <metadata id="CorelCorpID_0Corel-Layer"/>
  <g id="_2362332972208">
   <path class="fil0" d="M76.98 92.95c0.57,-2.19 1.46,-3.84 2.66,-4.96 1.21,-1.12 2.35,-1.68 3.43,-1.68 0.51,0 0.91,0.13 1.19,0.4 0.28,0.27 0.42,0.62 0.42,1.05 0,0.71 -0.32,1.46 -0.97,2.25 -0.65,0.79 -1.62,1.47 -2.92,2.04 -0.98,0.42 -2.25,0.72 -3.81,0.9l0 0 0 0z"/>
   <path class="fil0" d="M93.39 86.54c0.23,1.05 0.35,2.15 0.35,3.27 0,8.38 -6.79,15.17 -15.17,15.17 -4.47,0 -8.49,-1.93 -11.26,-5.01 0.25,0.02 0.5,0.03 0.77,0.03 1.24,0 2.39,-0.27 3.44,-0.82 1.05,-0.54 1.85,-1.31 2.42,-2.31 0.14,-0.25 0.26,-0.5 0.36,-0.76 0.14,0.84 0.5,1.62 1.09,2.35 0.76,0.94 1.89,1.42 3.4,1.42 2.22,0 4.55,-1.21 6.99,-3.63l0 0 -0.32 -0.44 0 0c-1.37,1.03 -2.41,1.7 -3.11,2 -0.7,0.3 -1.42,0.45 -2.18,0.45 -0.94,0 -1.74,-0.32 -2.41,-0.96 -0.66,-0.63 -0.99,-1.41 -0.99,-2.32 0,-0.34 0.03,-0.76 0.1,-1.27 2.12,-0.24 3.77,-0.57 4.94,-0.99 1.77,-0.63 3.11,-1.45 4.02,-2.47 0.69,-0.79 1.03,-1.61 1.03,-2.46 0,-0.33 -0.07,-0.63 -0.23,-0.91l0 0 2.01 0 -2.71 8.95 0 0c-0.35,1.15 -0.52,2 -0.52,2.56 0,0.43 0.14,0.79 0.41,1.07 0.27,0.28 0.62,0.42 1.05,0.42 0.55,0 1.1,-0.19 1.65,-0.55 0.8,-0.54 1.64,-1.48 2.54,-2.84l0 0 -0.51 -0.39 0 0c-0.76,1.06 -1.26,1.7 -1.48,1.9 -0.37,0.34 -0.68,0.51 -0.91,0.51 -0.1,0 -0.19,-0.04 -0.26,-0.13 -0.07,-0.09 -0.11,-0.21 -0.11,-0.38 0,-0.3 0.18,-0.97 0.54,-2l0 0 2.8 -9.12 2.17 0 0.09 -0.34 0 0z"/>
   <path class="fil0" d="M92.23 83.21c0.41,0.85 0.75,1.75 1,2.68l0 0 -1.8 0 0.8 -2.68 0 0z"/>
   <path class="fil0" d="M68.53 78.43c2.67,-2.36 6.19,-3.79 10.04,-3.79 5.6,0 10.49,3.03 13.12,7.54 -0.88,1.26 -1.66,2.16 -2.37,2.71 -0.79,0.61 -1.75,1.07 -2.88,1.38l0 0 -0.06 0.24 0 0c-0.09,-0.11 -0.19,-0.2 -0.3,-0.3 -0.53,-0.44 -1.34,-0.66 -2.43,-0.66 -1.51,0 -2.99,0.44 -4.42,1.33 -1.43,0.89 -2.62,2.14 -3.57,3.74 -0.42,0.72 -0.75,1.42 -0.98,2.12 -0.11,-0.55 -0.3,-1.09 -0.58,-1.61 -0.46,-0.83 -1.46,-1.98 -3,-3.46 -1.54,-1.48 -2.53,-2.55 -2.96,-3.2 -0.43,-0.66 -0.64,-1.34 -0.64,-2.07 0,-0.82 0.34,-1.55 1.01,-2.17 0.67,-0.63 1.54,-0.95 2.61,-0.95 1.36,0 2.44,0.4 3.27,1.19 0.83,0.8 1.24,1.82 1.24,3.07 0,0.38 -0.02,0.88 -0.06,1.5l0 0 0.53 0 1.62 -6.96 -0.57 0 0 0c-0.29,0.51 -0.54,0.84 -0.76,1 -0.22,0.16 -0.47,0.23 -0.77,0.23 -0.18,0 -0.34,-0.01 -0.48,-0.04 -0.06,-0.02 -0.4,-0.15 -0.99,-0.39 -0.85,-0.36 -1.43,-0.56 -1.75,-0.63 -0.52,-0.11 -1.07,-0.17 -1.64,-0.17 -0.82,0 -1.56,0.12 -2.23,0.35l0 0 0 0z"/>
   <path class="fil0" d="M63.4 89.81c0,-2.37 0.54,-4.62 1.51,-6.62 0,0.07 0,0.14 0,0.21 0,0.91 0.23,1.79 0.7,2.62 0.29,0.51 0.94,1.27 1.96,2.3 2.1,2.16 3.4,3.66 3.88,4.52 0.32,0.57 0.48,1.21 0.48,1.91 0,1.09 -0.35,2.04 -1.05,2.87 -0.7,0.83 -1.72,1.24 -3.07,1.24 -0.56,0 -1.08,-0.06 -1.56,-0.19 -1.8,-2.5 -2.85,-5.56 -2.85,-8.86l0 0 0 0z"/>
   <path class="fil1" d="M65.59 90.64l-1.89 8.53 -2.85 0 2.12 -9.56 0 0c0,-0.16 0,-0.42 0,-0.75 0,-0.76 -0.24,-1.4 -0.73,-1.9 -0.48,-0.51 -1.09,-0.76 -1.83,-0.76 -1.31,0 -2.43,0.47 -3.38,1.41 -0.95,0.94 -1.57,2.13 -1.87,3.59l0 0 -1.72 7.97 -2.84 0 3.1 -14.65 2.85 0 -0.45 2.22 0 0c1.04,-0.93 1.88,-1.59 2.53,-1.97 0.93,-0.52 1.89,-0.79 2.88,-0.79 1.31,0 2.35,0.51 3.13,1.53 0.72,0.93 1.08,2.1 1.08,3.51 0,0.53 -0.04,1.07 -0.13,1.62l0 0 0 0zm-12.94 -2.23c-0.67,3.15 -2.02,5.73 -4.05,7.75 -2.21,2.22 -4.82,3.32 -7.84,3.32 -2.51,0 -4.42,-0.76 -5.73,-2.3 -1.18,-1.4 -1.77,-3.29 -1.77,-5.7 0,-1.01 0.12,-2.1 0.35,-3.26 0.65,-3.14 2.07,-5.68 4.24,-7.61 2.17,-1.92 4.66,-2.89 7.46,-2.89 2.37,0 4.23,0.73 5.6,2.18 1.37,1.46 2.06,3.38 2.06,5.76 0,0.93 -0.11,1.85 -0.32,2.75l0 0 0 0zm-3.13 -0.06c0.23,-1.12 0.35,-2.1 0.35,-2.94 0,-1.75 -0.42,-3.11 -1.27,-4.08 -0.84,-0.97 -2.06,-1.46 -3.66,-1.46 -2.14,0 -3.98,0.92 -5.54,2.75 -1.29,1.52 -2.16,3.35 -2.63,5.48 -0.25,1.18 -0.38,2.3 -0.38,3.35 0,1.77 0.38,3.15 1.14,4.14 0.87,1.12 2.16,1.68 3.89,1.68 1.92,0 3.6,-0.77 5.03,-2.31 1.44,-1.54 2.46,-3.74 3.07,-6.61l0 0 0 0z"/>
  </g>
 </g>
</svg>